PathFileType	4	(X/Y/Z)	39_1_52_p1_0-331.trc
DataRate	CameraRate	NumFrames	NumMarkers	Units	OrigDataRate	OrigDataStartFrame	OrigNumFrames
60.0	60.0	6	27	m	60.0	249	332
Frame#	Time	RHip			RKnee			RAnkle			RBigToe			RSmallToe			RHeel			LHip			LKnee			LAnkle			LBigToe			LSmallToe			LHeel			Neck			Head			Nose			RShoulder			RElbow			RWrist			RThumb			RIndex			RPinky			LShoulder			LElbow			LWrist			LThumb			LIndex			LPinky			
		X1	Y1	Z1	X2	Y2	Z2	X3	Y3	Z3	X4	Y4	Z4	X5	Y5	Z5	X6	Y6	Z6	X7	Y7	Z7	X8	Y8	Z8	X9	Y9	Z9	X10	Y10	Z10	X11	Y11	Z11	X12	Y12	Z12	X13	Y13	Z13	X14	Y14	Z14	X15	Y15	Z15	X16	Y16	Z16	X17	Y17	Z17	X18	Y18	Z18	X19	Y19	Z19	X20	Y20	Z20	X21	Y21	Z21	X22	Y22	Z22	X23	Y23	Z23	X24	Y24	Z24	X25	Y25	Z25	X26	Y26	Z26	X27	Y27	Z27	
249	4.15	0.31194794285118554	0.6515238288338882	0.4863295517386581	0.26885597454322707	0.780149077152033	0.9415490138808963	0.2361753817650078	0.8425455151527693	1.3237918337565278	0.22791691618208995	0.6769987261601347	1.3537117461375683	0.2895985417929807	0.6689674055826201	1.348563624970506	0.20123865306886696	0.9355921404369735	1.3837919123611817	0.07716758089976601	0.6831354449723358	0.4599772318701244	0.05191396031224596	0.7546369003318482	0.8876738228197676	0.03978566958200376	0.818405340220714	1.290480753979575	0.06628327096815448	0.6409749090521341	1.3247436224217353	0.002429479955314996	0.6929976638031238	1.3319880928854086	0.04712804138505919	0.8756013605971779	1.3530206225298145	0.2420707082765453	0.6274509089855136	-0.065633326449441	0.2567186925301407	0.5356084933656398	-0.292740616977385	0.2499824366754454	0.4984373970054566	-0.16954123003850358	0.4092539154838918	0.6641697988024631	0.034651993205708866	0.43258470268988486	0.6188406041747084	0.2971262103246503	0.35640526832914343	0.5746624436254419	0.5398389424904713	0.284975688818188	0.5282072366957934	0.6545099723019553	0.29061122173002935	0.5162417197109416	0.6710052438014745	0.3377214081644377	0.5640597896886929	0.6759547065389859	0.07555831396464187	0.6691465874273158	0.0016408404559585866	0.041726672220905515	0.7255144877516237	0.21488407450988817	-0.018778445723047855	0.5052327320258524	0.18777349865254978	-0.026900558049191527	0.4019996243125361	0.1396351325633247	-0.05166166886032239	0.3467241498574271	0.13242130292705345	-0.0477605163125067	0.34692673470897445	0.18232866380471063
250	4.166666666666667	0.30872956541793917	0.638682420143085	0.4838807471287278	0.26879428671522015	0.779866578585034	0.9413466683370043	0.2361942185854423	0.8426353790077687	1.3237860535033685	0.22797908881825635	0.6769810885274706	1.3536550663454718	0.2896436790129764	0.6689825716191897	1.3485341739619305	0.2005619395724105	0.9331703628422702	1.378326533022703	0.0774855858784561	0.6845693148121157	0.46435827553649284	0.05197590338636167	0.754543180749329	0.8876914614990461	0.03970861181219205	0.8184336832902922	1.2904310933544796	0.06626666867723871	0.6410405373033604	1.3247561007750452	0.0011165864422297191	0.6938952510826766	1.3359367481213025	0.04699387371194308	0.8751412348556563	1.352560221385183	0.2420994739480956	0.6273973899808389	-0.06573872333620392	0.2567602952403183	0.5357254715103875	-0.2927718392514005	0.24990752532323987	0.4985300698674901	-0.1696711972589323	0.40897173466986353	0.6630217028705172	0.03126024053568758	0.4324938415949103	0.619134114534212	0.2970854547029574	0.36095794910249135	0.5761929819443167	0.5400379150915534	0.2850129551068923	0.5295240186972662	0.651658786853317	0.29087788169658074	0.5167369923981909	0.6710812106570194	0.33781411309482184	0.5644907939915088	0.6760472556499957	0.07562497612613396	0.6690139277657542	0.0015535819642527836	0.04772391918202311	0.711469231805465	0.21380324385667468	-0.019400562368197646	0.506839574570831	0.19528620454524426	-0.0311072844902013	0.3643804736130289	0.14573381792405088	-0.05723646652293612	0.3580801144240706	0.1468299394617126	-0.05327079706355548	0.3579481207133822	0.18753100093914848
251	4.183333333333334	0.3083474796043872	0.656693006104122	0.4912056625490078	0.2724975920049161	0.7837476997174554	0.9392044025884068	0.23633643349369382	0.842810816643425	1.3239332468663823	0.22802129227703796	0.6769582766786264	1.3536299475490863	0.2941995045273725	0.6712768437109311	1.3495774503089335	0.20388078219353567	0.9486595064211222	1.3851863732012573	0.07748314081129742	0.6845236166334125	0.4643789902084842	0.048028885530880146	0.752624857951362	0.887259223881059	0.04022027046197848	0.8204445475739623	1.2965108751952141	0.0663182532279901	0.640892291081674	1.3247611702294115	0.0072419004992285985	0.6796850013121476	1.329339748570648	0.047441336469902465	0.8772877885410357	1.357595184312705	0.23958991532865948	0.6149829009221377	-0.06580799160645884	0.25681288782198225	0.5360028750230933	-0.2926330441072532	0.2526504593520934	0.5102779263022151	-0.1699770724538771	0.40888488660507244	0.6632077240738045	0.027313517646138038	0.43244468813261633	0.6190019768266584	0.29709029490949634	0.3609788869456864	0.5760399132552269	0.5401074577975263	0.2852267705308064	0.5297654395373536	0.6519802917173203	0.2912359533358243	0.5169853996136873	0.6711032711616258	0.33780890610549474	0.5645100874860646	0.6760726809632414	0.0754702888749582	0.6690913799226078	0.001783438599894451	0.046712865255676174	0.7115884369731958	0.22401080564206793	-0.02723725583051036	0.4932783383710099	0.2019610179330319	-0.04209601371260612	0.3658049395273202	0.15976210772413857	-0.06864682497076564	0.360357647783718	0.16457854581988246	-0.04960145351786557	0.3575342157437833	0.20599806499247156
252	4.2	0.3042130056786233	0.6550678260388596	0.4909354672288053	0.2687267287948466	0.7809807279174481	0.9380501722661695	0.2356801679216419	0.8403722890528883	1.318412189681157	0.22305252820136243	0.6722815990733164	1.3472980060852258	0.2926737345237805	0.6824800844729482	1.35460818039379	0.20386532578339492	0.9486974630825691	1.3851033858869866	0.07735210993177766	0.6850981021740576	0.46100825928301614	0.05298711693341425	0.7542979115653983	0.8837541211264536	0.0402119486826677	0.8207906643149789	1.2965247963720659	0.06946247113031823	0.6546005236693991	1.3274140487142736	0.011878857172823928	0.6814196314978765	1.3300707393908549	0.047628800467814605	0.8784095067375417	1.3579746718541972	0.2395525839881124	0.6136193263160378	-0.0696543338689623	0.2570168894347336	0.5360107400464807	-0.2959867608154628	0.25266324814030244	0.5092765295921625	-0.17329123615808062	0.4088733828635046	0.6632274398784539	0.027309714176548833	0.4324911558817939	0.6191911492616976	0.29698952950891827	0.36528862461981776	0.5623137708745454	0.5370811693494651	0.29024660793265383	0.517072280835108	0.6491365914665943	0.2948328250990593	0.518173343284144	0.6714845898927423	0.34097987360769966	0.5765469650213311	0.6791092055677367	0.07536424805522401	0.6691144478721429	0.001956658069220667	0.033077689938602196	0.710445031377079	0.2292247734762635	-0.02244311551043008	0.4818917690406153	0.20968597587710555	-0.04901305326751832	0.3570218732203876	0.1875562748071342	-0.06618416677163226	0.3377238677141047	0.18187853390168265	-0.0446585693950993	0.34724141952006554	0.22030334665367018
253	4.216666666666667	0.30419795179955067	0.6551705485679645	0.491051144327799	0.26887157745536433	0.7811115033435267	0.9382464774621156	0.23935925609624673	0.8580013893759831	1.3304387170238219	0.22307589229595196	0.6719172726024882	1.3471047651297399	0.28978479802008983	0.6692141935855835	1.3484726766904354	0.20398014571802067	0.9493195485933074	1.385382021682732	0.07751173962815237	0.6863324525323351	0.4694343591107856	0.05307450375839731	0.7541002410000812	0.8836757884244066	0.04020998181024656	0.8208743436257525	1.2965500209531302	0.06943765489610577	0.6547025458224136	1.3274197311594134	0.00706375274389314	0.6948429907582417	1.332826441919421	0.04970720784347676	0.8929754546683716	1.3646673183369105	0.2395873930325899	0.6135423338418894	-0.06966270119559195	0.25707493877434917	0.5361064930062251	-0.2959687418238314	0.25270759506726975	0.5093292677566137	-0.17331418559761175	0.4088953483376644	0.6632448014048717	0.027349613476961177	0.4323315875968409	0.6197539229358227	0.29339894755207513	0.36102127027367276	0.5763661644124534	0.5402483614551469	0.2939605747338139	0.51801906914401	0.652962317178999	0.2981634001309655	0.519492392188207	0.6720390908534494	0.338146411495834	0.5635406892614252	0.6799395815960598	0.07530623216330345	0.6688865459157608	0.0021753949534866206	0.02531386295010858	0.7044207736809842	0.23529240002729832	-0.02617286976664623	0.47945161253526875	0.2268360782759628	-0.048614498513327595	0.35601736850125243	0.20674641958101378	-0.05522063173635073	0.344004911888645	0.19427210883539064	-0.046733637598886386	0.34732969213794795	0.2289607591105368
254	4.233333333333333	0.3034239952081757	0.6557789753639911	0.494909925901324	0.26880918474557736	0.7809759519455827	0.9380226364881153	0.2405562793952984	0.8570833858070773	1.3257134778029946	0.22303838380449084	0.6718878248752531	1.3471396319837114	0.2897060978868915	0.6689014606443111	1.3483795936073488	0.20399317709045056	0.9493073297927418	1.3853127346485488	0.08152845410003705	0.6884139737803683	0.4700298992329256	0.05303600663693532	0.7541957880043434	0.883641939498998	0.041592231569048725	0.8197947551630178	1.2918540502629166	0.06940716575826104	0.654526448135602	1.3273329914216578	0.008837897832969493	0.7086773449443354	1.3436215092265547	0.047664783517864476	0.878696332668948	1.358170487619604	0.24212172382365016	0.626031868759144	-0.06961075920983598	0.2571242593425397	0.5360837195295558	-0.2959343525425247	0.25275900629524783	0.5094561831204499	-0.17328162210939077	0.4089119496770434	0.6632022772752978	0.027337446967166366	0.42833406552081604	0.6337830980195448	0.2988737280819519	0.3609832602088493	0.5765701011194528	0.5402580295928708	0.29473713734871687	0.5196132228731154	0.6577829888998912	0.29833807847810406	0.5194507950945372	0.6722880882262655	0.3411114742118109	0.5764771647738296	0.6792854337745543	0.0754395231613911	0.6688463014925465	0.0021630437794479453	0.02181880079002828	0.6724974657478284	0.24068313546297712	-0.025485750583798986	0.4678891842197738	0.24068458228681944	-0.04526329146702061	0.33537839378788664	0.21580034298326886	-0.06077127955441936	0.3301283457067991	0.21721337000687635	-0.053576830657924845	0.33860528955242175	0.25400710756860534
